<?xml version="1.0" encoding="utf-8"?>
<!-- Generator: Adobe Illustrator 25.0.1, SVG Export Plug-In . SVG Version: 6.00 Build 0)  -->
<svg fill="#a27b59" version="1.1" id="Capa_1" xmlns="http://www.w3.org/2000/svg" xmlns:xlink="http://www.w3.org/1999/xlink" x="0px" y="0px"
	 viewBox="0 0 512 512" style="enable-background:new 0 0 512 512;" xml:space="preserve">
<g>
	<path d="M251.1,0c4.7,2.4,9.8,4.2,14,7.3c6.9,5,10.2,12.5,11.3,20.9c24.3-7.3,37.1-2.2,46.3,18.8c7.2-3.6,14.7-5.6,22.9-4.2
		c13.3,2.2,24.3,12.4,25.5,25.8c1.6,16.9,2.3,33.9,2.8,50.9c1.1,39.5,4.4,78.8,10.3,117.9c0.2,1.1,0.5,2.3,0.9,3.9
		c2.1,0,4.3,0,6.4,0c17,0,34,0,51,0c1.2,0,2.3-0.1,3.5,0c5.1,0.3,8.2,3.2,8.2,7.6c0,4.5-3,7.3-8.2,7.3c-17.2,0.1-34.3,0-51.5,0
		c-2.3,0-4.6,0-7.5,0c0.6,6.1,1.3,11.6,1.7,17.2c0.4,5,0.6,10,0.6,15c0,4.8-2.8,8-6.9,8.3c-4,0.3-7.4-2.7-7.9-7.3
		c-0.9-9.3-1.8-18.6-2.2-27.9c-0.2-4.5-2-5.8-6.1-5.3c-2.1,0.3-4.3,0-6.6,0c-3.3,16.6-16,15.1-27.8,14.6
		c-4.3,13.1-8.5,16.1-21.9,16.1c-7.3,0-14.7,0.1-22,0c-10.5-0.1-17.3-6.6-17.4-17.1c-0.2-14-0.2-28,0-42
		c0.2-10.7,6.6-16.9,17.4-17.1c8-0.1,16-0.1,24,0c11.5,0,16.7,4.2,19.5,15.5c5.8,0.5,11.9,0.3,17.6,1.6c6.2,1.4,9.3,6.6,10.5,13.1
		c3.1,0,6.2,0,10,0c-0.9-7.2-1.5-14.4-2.7-21.5c-5.2-31.8-6.3-64-7.8-96.1c-0.7-16.3-1.4-32.6-2.2-48.9c-0.5-10.5-7.5-17.3-17.1-17
		c-9.6,0.2-16.2,7.3-16.2,17.8c-0.1,30.5,0,61,0,91.5c0,7.7-2.4,11.4-7.4,11.4c-5,0-7.6-3.9-7.6-11.3c0-36.2,0-72.3,0-108.5
		c0-5.5-1-10.6-5.3-14.5c-8.8-7.9-22.8-3.9-26,7.6c-0.7,2.7-0.9,5.6-0.9,8.4c-0.1,35.5,0,71,0,106.5c0,1.7,0.1,3.3-0.1,5
		c-0.4,4.1-2.9,6.4-6.8,6.8c-3.7,0.3-6.5-1.7-7.5-5.3c-0.6-2-0.6-4.3-0.6-6.4c0-43.8,0-87.7-0.1-131.5c0-2.8,0-5.7-0.8-8.4
		c-2-7.1-9.2-11.7-16.5-11.1c-7.5,0.6-13.6,6.7-14.7,14.7c-0.2,1.8-0.2,3.7-0.2,5.5c0,40.8,0,81.7,0,122.5c0,1.7,0.1,3.3-0.1,5
		c-0.4,3.8-2.6,6.1-6.4,6.6c-4,0.5-6.9-1.3-8-5.2c-0.5-1.9-0.5-3.9-0.5-5.9c0-34,0-68,0-102c0-12.1-10.2-19.7-21.2-16.2
		c-6.8,2.2-10.8,7.8-10.9,15.6c-0.1,17.2,0,34.3,0,51.5c0,1.3,0.1,2.7,0,4c-0.3,4.6-3.3,7.8-7.4,7.8c-4.1,0-7.2-3.2-7.5-7.8
		c-0.2-3.2-0.1-6.3-0.1-9.5c0-14.8,0-29.7,0-44.5c0-25.4,21.8-39.6,45.1-29.5c0.4,0.2,0.9,0.3,1.4,0.4c0.3-0.3,0.7-0.4,0.7-0.7
		C217,12.6,226,4,240.1,0C243.7,0,247.4,0,251.1,0z M316.1,249.2c0-6.7-0.1-13.3,0-20c0-2.6-0.8-3.6-3.4-3.6
		c-7.8,0.1-15.6,0.1-23.4,0c-2.8,0-3.8,1.1-3.8,3.8c0.1,13,0.1,25.9,0,38.9c0,2.5,0.8,3.6,3.5,3.6c7.8-0.1,15.6-0.1,23.4,0
		c2.9,0,3.8-1.1,3.7-3.9C316,261.8,316.1,255.5,316.1,249.2z M331.3,255.5c4.6,0,8.7,0,12.6,0c0-4.8,0-9.2,0-13.4
		c-4.5,0-8.5,0-12.6,0C331.3,246.8,331.3,251,331.3,255.5z"/>
	<path d="M362.1,512c-4.2-2.2-5.3-5.8-5.2-10.4c0.1-32,0.1-64,0.1-96c0-2,0-3.9,0-6.5c-2.6,0-4.8-0.3-6.8,0.1
		c-1.4,0.3-3.3,1.4-3.8,2.7c-3.3,8-7.6,11.2-16.3,11.3c-2,0-4,0.1-6,0c-4.2-0.4-7.3,0.7-10.5,4c-6.6,6.8-30.6,6.7-37-0.1
		c-2.7-2.9-4.9-7.4-5.3-11.3c-0.8-9.3-0.4-18.6-0.2-28c0.2-9,7-15.6,16-15.8c4.7-0.1,9.3,0.1,14-0.1c5.9-0.2,10.7,1.7,14.6,6.2
		c0.9,1.1,2.7,1.8,4.2,1.9c3.8,0.3,7.7,0,11.5,0.1c6.8,0.3,12.1,3.4,14.2,9.9c1.2,3.8,3.1,4.4,6.5,4.2c2.5-0.2,5,0,8.5,0
		c3.5-15.3,7.2-30.4,10.5-45.6c1.2-5.3,1.5-10.9,2.2-16.3c0.7-5.8,3.7-8.8,8.5-8.4c4.7,0.4,7.5,3.8,6.4,9.9
		c-3.2,17.7-6.9,35.2-10.4,52.8c-0.5,2.4-1.2,4.7-2,7.6c10.3,0,19.9,0,29.6,0c1.7,0,3.3-0.1,5,0c5,0.4,8.1,3.5,7.9,7.9
		c-0.2,4.2-3.2,7-8.1,7c-10.7,0.1-21.3,0-32,0c-1.8,0-3.6,0-6.1,0c0,2.4,0,4.3,0,6.2c0,31.8-0.1,63.6,0.1,95.5
		c0,4.6-0.8,8.5-4.9,11.2C365.4,512,363.7,512,362.1,512z M303.8,406.2c0-10,0-19.4,0-28.8c-6.1,0-11.8,0-17.6,0
		c0,9.8,0,19.1,0,28.8C292.1,406.2,297.9,406.2,303.8,406.2z M331.7,385.4c-4.4,0-8.3,0-12.2,0c0,4.4,0,8.5,0,12.5
		c4.3,0,8.1,0,12.2,0C331.7,393.6,331.7,389.6,331.7,385.4z"/>
	<path d="M211.1,512c-4.1-2.3-5.4-5.8-5.2-10.4c0.3-5.6,0.1-11.3,0.1-17.4c-7.4,0.5-13.5-1.4-17.9-7.3c-0.5-0.7-2.1-0.8-3.2-0.8
		c-3-0.1-6,0-9,0c-10.3-0.1-15.1-3.6-18.3-14.1c-4.3,0-8.7,0-13.2,0c-16.2,0-32.3,0-48.5,0c-6.1,0-9.5-3.1-9.2-8
		c0.3-4.4,3.3-6.9,8.7-6.9c18.8-0.1,37.7,0,56.5,0c1.8,0,3.6,0,5.3,0c5.2-12.2,8.1-14.2,21.2-14.1c5.2,0,9.6-0.3,13.8-4.6
		c3-3,8.6-3.4,13.6-5.2c0.9-4.2-0.3-8.5-4.2-12.1c-5.1-4.7-10.1-9.7-15.1-14.6c-3.9-3.9-4.2-8.1-0.8-11.4c3-3,7.5-2.9,11.1,0.6
		c5.8,5.5,11.5,11.1,17.2,16.7c6.1,6.1,7.5,13.9,7,22.5c11,3.5,13.5,12.1,12.9,22.4c-0.3,6.3,0,12.7-0.1,19
		c0,7.7-3.2,13.4-10.2,16.9c-1.2,0.6-2.4,2.6-2.5,4c-0.3,4.8-0.3,9.7-0.1,14.5c0.3,4.6-1.1,8.1-5,10.6
		C214.4,512,212.7,512,211.1,512z M218.8,468.8c0-9.3,0.1-18.1-0.1-26.8c0-0.9-1.8-2.4-2.8-2.5c-4.1-0.3-8.3-0.3-12.4,0
		c-1.1,0.1-2.9,1.6-2.9,2.4c-0.2,8.9-0.1,17.8-0.1,26.9C206.8,468.8,212.3,468.8,218.8,468.8z M185.1,448.1c-4.1,0-8,0-11.8,0
		c0,4.4,0,8.5,0,12.6c4.1,0,7.8,0,11.8,0C185.1,456.4,185.1,452.3,185.1,448.1z"/>
	<path d="M174.3,336.2c-9,0-18.1,0-25.8,0c6.1,6.6,12.7,13.8,19.3,21c1.7,1.8,3.6,3.4,5.3,5.3c2.9,3.3,2.8,7.5,0,10.3
		c-2.8,2.9-7,3.2-10.3,0.3c-3.6-3.2-7-6.6-10.5-10c-8.6-8.4-17.1-16.8-25.8-25.1c-1.2-1.1-3.1-1.9-4.6-2c-5-0.3-10,0-15-0.1
		c-5.2-0.1-8.7-3.5-8.4-7.9c0.2-4.3,3.4-7,8.6-7.1c2.6-0.1,5.2,0,8.7,0c-1.4-2.5-2.3-4.2-3.2-5.9c-13.1-23.4-26.5-46.6-39.4-70.1
		c-11-19.9-0.1-43.3,22.1-47.5c10.9-2,20.4,1.3,28.3,9.2c7.2,7.2,14.3,14.5,21.5,21.6c7.1,7.1,14.2,14,22.2,21.9c0-2.3,0-3.9,0-5.6
		c0-32.7,0-65.3,0-98c0-1.7-0.1-3.4,0.3-5c1.1-3.8,3.7-5.9,7.8-5.6c4,0.3,6.3,2.8,6.8,6.7c0.1,0.8,0.1,1.7,0.1,2.5
		c0,36.8,0,73.7,0,110.5c0,9.5-7.1,15.6-15.5,13.2c-2.7-0.8-5.3-2.8-7.3-4.9c-15.3-15.3-30.6-30.7-45.8-46.1
		c-4.7-4.7-10.1-7-16.7-5.4c-11.4,2.8-16.4,14.7-10.5,25.3c11.2,20.2,22.7,40.4,34,60.5c3.7,6.5,7.3,13.1,11.1,19.5
		c0.8,1.3,2.6,2.9,3.9,3c13,0.2,26,0.1,38.8,0.1c4.4-11.8,8.2-14.7,20.4-14.5c4.5,0.1,8.1-0.1,10.7-4.9c2.5-4.6,7.7-6.2,12.9-6.3
		c6.5-0.1,13-0.2,19.5,0c9.9,0.3,16.5,6.9,16.7,16.8c0.2,10.8,0.2,21.7,0,32.5c-0.1,9.9-6.3,16.3-16.1,16.8c-7,0.3-14,0.1-21,0
		c-5.9-0.1-10.3-3.1-13.7-7.9c-1.1-1.5-3.4-2.4-5.3-3.1c-1.2-0.4-2.6-0.1-4-0.1C182.1,350.2,178.2,347.4,174.3,336.2z M239.3,328.4
		c0-4.7-0.1-9.3,0-14c0.1-2.8-0.7-4.3-3.9-4.2c-5.2,0.2-10.3,0.1-15.5,0c-2.8-0.1-3.8,1.1-3.8,3.8c0.1,9.5,0.1,19,0,28.5
		c0,2.7,0.8,4,3.7,3.9c5.3-0.1,10.7-0.1,16,0c2.6,0.1,3.6-0.9,3.5-3.5C239.3,338,239.3,333.2,239.3,328.4z M190.1,321.5
		c0,4.7,0,8.9,0,13.2c3.9,0,7.4,0,10.8,0c0-4.6,0-8.8,0-13.2C197.1,321.5,193.9,321.5,190.1,321.5z"/>
	<path d="M76.2,373.2c3.8,0,6.7-0.1,9.7,0c6.7,0.3,9.9,4.2,8.1,10.6c-3.3,11.7-6.8,23.3-10.4,34.8c-1.5,4.9-5.3,7-9.5,5.7
		c-4.3-1.4-6.2-5-4.8-10c1.9-7,4.2-14,6.2-21c0.5-1.5,0.8-3.1,1.3-5.2c-4,0-7.4,0.1-10.9,0c-6-0.2-9.5-4.5-7.6-10
		c3.7-10.8,7.8-21.5,12-32.2c1.6-4.1,5.7-5.5,9.5-4c3.8,1.5,5.7,5.1,4.3,9.4C81.8,358.3,79.1,365.3,76.2,373.2z"/>
	<path d="M120.8,97.9c4.1,0,7.4-0.1,10.7,0c5.6,0.2,8.9,4,7.5,9.3c-3.4,12.5-7.2,24.9-11.1,37.3c-1.3,4-5.6,5.8-9.4,4.3
		c-3.9-1.6-5.7-4.7-4.6-8.8c2.4-8.8,5.1-17.5,7.9-27.1c-3.9,0-7.3,0.1-10.7,0c-6.5-0.3-9.9-4.7-7.7-10.8
		c3.6-10.3,7.6-20.6,11.5-30.8c1.7-4.5,5.6-6.3,9.5-5c4.1,1.4,6,5.6,4.4,10.2C126.3,83.5,123.6,90.2,120.8,97.9z"/>
	<path d="M427.9,162.9c4,0,7.3-0.1,10.6,0c5.6,0.2,8.9,3.9,7.5,9.3c-3.4,12.5-7.2,24.9-11.1,37.3c-1.3,4-5.5,5.8-9.4,4.3
		c-4-1.5-5.7-4.7-4.6-8.8c1.7-6.6,3.8-13.1,5.7-19.6c0.6-2.2,1.3-4.5,2.1-7.5c-3.8,0-7.2,0.1-10.6,0c-6.5-0.2-9.9-4.7-7.8-10.7
		c3.6-10.3,7.6-20.6,11.5-30.8c1.7-4.5,5.6-6.3,9.5-5c4.1,1.4,6.1,5.5,4.5,10.2C433.4,148.6,430.7,155.5,427.9,162.9z"/>
</g>
</svg>
