<?xml version="1.0" encoding="utf-8"?>
<!-- Generator: Adobe Illustrator 25.0.1, SVG Export Plug-In . SVG Version: 6.00 Build 0)  -->
<svg fill="#FFFFFF" version="1.1" id="Capa_1" xmlns="http://www.w3.org/2000/svg" xmlns:xlink="http://www.w3.org/1999/xlink" x="0px" y="0px"
	 viewBox="0 0 512 512" style="enable-background:new 0 0 512 512;" xml:space="preserve">
<g>
	<path d="M115.3,51.4c0-9.2-0.2-17.4,0-25.5C116,7.3,130.9-3.6,148.7,1.4c10.8,3,17.4,11.6,17.7,23.5c0.2,8.6,0,17.1,0,26.1
		c51.3,0,102.1,0,153.5,0c0-8.3-0.1-16.4,0-24.6C320.2,5.8,339.3-6,357.9,3.1c9.8,4.8,13.1,13.4,13.3,23.7c0.1,7.9,0,15.9,0,24.7
		c8.6,0,16.8-0.1,24.9,0c20.5,0.3,38.9,6.5,53.9,20.9c14.9,14.2,22.9,31.9,23.2,52.3c0.5,42.4,0.3,84.7,0.1,127.1
		c-0.1,14.5-9.8,24.3-23.8,24.9c-15.2,0.6-25.6-7.8-27-22.7c-0.7-7.3-0.1-14.8-0.1-22.7c-119.4,0-238.3,0-358.1,0c0,2.1,0,4.2,0,6.3
		c0,64.7,0,129.5,0,194.2c0,20.4,8.8,29.2,29.2,29.2c41.2,0,82.3-0.1,123.5,0.1c19.3,0.1,30.3,15.2,25.1,33.7
		c-2.8,9.9-10.8,16.5-21.5,17c-9.4,0.4-18.8,0.2-28.2,0.2c-35.2,0-70.3,0.4-105.5-0.2c-35.9-0.6-64.5-24.6-72.1-59.6
		c-1.3-5.8-1.7-11.9-1.8-17.8C13,332.5,13,230.8,13.1,129.1c0-44.6,32.3-77.1,77-77.7C98.2,51.3,106.4,51.4,115.3,51.4z M320,103.1
		c-51.5,0-102.4,0-153.5,0c0,9,0.2,17.6,0,26.2c-0.3,12.6-7.8,21.7-19.5,23.9c-18.1,3.5-31.2-7-31.7-25.5c-0.2-8.1,0-16.3,0-25
		c-8.6,0-16.5,0-24.4,0c-16.9,0.1-26.3,9.4-26.5,26.4c-0.1,15.2,0,30.4,0,45.6c0,1.5,0.3,3,0.5,4.4c119.3,0,238.1,0,357,0
		c0-18.9,0.5-37.5-0.2-56c-0.4-10.6-8.9-18.8-20-19.9c-9.8-1-19.8-0.2-30.4-0.2c0,8.6,0.2,17-0.1,25.3
		c-0.5,15.8-10.5,25.7-25.7,25.6c-15.4-0.1-25.3-10.4-25.4-26.4C319.9,119.5,320,111.5,320,103.1z"/>
	<path d="M345.5,450.7c35.5-35.6,70.4-70.5,105.3-105.4c1.8-1.8,3.6-3.7,5.6-5.5c10.4-9.4,24.6-9.3,34.6,0.4
		c10.1,9.7,10.8,24.4,1.4,35c-4.4,4.9-9.2,9.4-13.9,14.1c-37.4,37.4-75.2,74.6-112.1,112.5c-12.7,13-29.6,12.7-41.3,0.2
		c-15.6-16.9-32.5-32.5-48.5-49c-14.3-14.7-7.4-38,12.6-42.7c9.4-2.2,17.3,1.1,23.9,7.7C323.8,428.8,334.4,439.6,345.5,450.7z"/>
</g>
</svg>
