<?xml version="1.0" encoding="utf-8"?>
<!-- Generator: Adobe Illustrator 25.0.1, SVG Export Plug-In . SVG Version: 6.00 Build 0)  -->
<svg fill="#a27b59" version="1.1" id="Capa_1" xmlns="http://www.w3.org/2000/svg" xmlns:xlink="http://www.w3.org/1999/xlink" x="0px" y="0px"
	 viewBox="0 0 512 512" style="enable-background:new 0 0 512 512;" xml:space="preserve">
<g>
	<path d="M253.1,512c-3.9-2.4-5.3-5.9-5.1-10.5c0.3-6.5,0.1-13,0.1-18.5c-8.7-6.1-16.7-12-25-17.4c-2.2-1.5-5.1-2.5-7.7-2.6
		c-12.8-0.4-22.4-7.8-24.2-18.9c-2.1-12.8,4.2-22.7,17.1-27.2c1.2-0.4,2.3-1.6,2.8-2.8c0.8-2,1.2-4.1,1.7-6.3
		c0.1-0.6,0.1-1.3,0.2-2.2c-1.4-0.2-2.6-0.4-3.9-0.7c-9.4-1.9-16.9-9.9-18-19.1c-1.3-11,3.6-20.5,12.8-24.8
		c7.7-3.6,7.7-3.6,9.1-12.7c-1.5-0.4-3.1-0.8-4.7-1.1c-9.4-2.3-16.5-10.4-17.3-19.7c-0.9-11.2,4-21.2,13.8-24
		c7.4-2.2,7.2-7.3,8.2-12.8c-1.7-0.3-3.2-0.5-4.6-0.8c-9.1-2.1-16.4-10.1-17.4-19.1c-1.2-11.1,3.4-21.3,13.1-24.4
		c7.2-2.3,8.1-7,8.8-12.9c-2.5-0.7-5-1.1-7.3-2c-8.8-3.2-14.5-11.3-14.8-20.6c-0.3-10.3,4.4-19.6,13.6-22.2
		c7.4-2.1,7.4-7.1,8.7-12.7c-1.2-0.3-2.1-0.6-3-0.8c-10.6-1.8-18.4-10-19.2-20.1c-1-12.2,5-21.7,16.1-25c2.8-0.8,4.1-2.1,4.7-4.9
		c0.9-4.4,2-8.8,3.2-13.1c1.7-6.1,5.3-9.1,11.4-9.2c19.5-0.1,39-0.1,58.5,0c5.9,0,9.5,3,11.3,8.7c0.5,1.7,1,3.5,1.3,5.3
		c1.2,6.9,2.8,12.4,11.1,15.4c9.3,3.3,13.3,14.4,11.3,24.8c-1.7,9.1-9.1,16.3-18.6,18c-1,0.2-1.9,0.3-3.5,0.6
		c0.8,3.2,1.3,6.3,2.3,9.2c0.3,0.9,1.4,1.7,2.4,2c13.1,4.9,18.3,12.4,17.7,25c-0.4,8.5-7.6,19.8-21.1,21.1c-0.3,0-0.5,0.3-1.1,0.7
		c0.6,2.6,1.1,5.4,2,8c0.4,1.1,1.7,2.3,2.8,2.8c12.8,4.8,18.3,13,17.3,25.8c-0.7,8.2-7.7,19-20.9,20.1c-0.3,0-0.6,0.3-1.3,0.7
		c0.7,2.7,1.2,5.7,2.1,8.5c0.3,1,1.6,2,2.6,2.4c12.8,4.6,18.3,12.5,17.5,25.1c-0.7,10.6-8.1,18.2-20.2,20.8
		c-0.5,0.1-0.9,0.2-1.9,0.5c1.1,5.5,1.2,10.5,8.7,12.8c10,3.1,14.7,13.4,13.4,24.7c-1.1,9.2-8.6,17.1-18,19.1
		c-1.1,0.2-2.3,0.3-3.4,0.4c-0.3,7.6,1.2,10.1,7.5,12.7c10.2,4.2,15.7,14.6,13.8,26.1c-1.7,10.2-10.7,18.4-21.7,18.6
		c-5.2,0.1-9.2,1.8-13.1,4.9c-3.4,2.7-6.9,5.3-10.5,7.7c-3.6,2.4-7.3,4.5-11.6,7.1c0,5.9-0.2,12.6,0.1,19.2
		c0.2,4.6-1.1,8.1-5.1,10.5C256.4,512,254.8,512,253.1,512z M263.1,177.7c5.9-4.3,10.9-7.6,15.5-11.4c5.3-4.4,10.9-6.6,17.8-6.2
		c5.6,0.3,8.5-2.5,8.7-7.3c0.3-5.2-2.3-8-7.9-8.8c-6.3-0.9-9.5-3.7-11.1-9.8c-1.1-4.2-2.2-8.4-3-12.6c-0.5-2.8-1.7-3.8-4.6-3.8
		c-15.3,0.1-30.6,0.1-46,0c-3,0-4.1,1.1-4.6,3.8c-0.8,4.4-2,8.8-3.1,13.1c-1.4,5.1-4.6,8.3-10,9.2c-6.8,1.1-9.2,3.5-8.9,8.9
		c0.3,5.2,3.3,7.5,10.3,7.3c5.6-0.2,10.3,1.5,14.7,5c5.3,4.2,10.8,8,17,12.5c0-5.9-0.1-10.7,0-15.5c0.1-5.4,3-8.7,7.5-8.7
		c4.5,0,7.4,3.3,7.5,8.7C263.2,167,263.1,171.8,263.1,177.7z M263.1,235.1c5.9-4.3,11-7.7,15.8-11.6c5-4.1,10.3-6.2,16.9-5.8
		c5.9,0.4,9-2.5,9.4-7.3c0.4-5.3-2-8.1-8.3-9c-6.1-0.9-9.4-4.4-10.8-10.1c-0.7-3.1-1.6-6.2-2.5-9.8c-9.1,6.2-16.6,13.6-27.9,13.6
		c-11.5,0.1-19.1-7.6-28.1-13.6c-0.6,2.4-1.3,4.3-1.6,6.2c-1.3,8.1-5,13.3-14,14.3c-2.2,0.2-5.1,3.7-5.8,6.3
		c-1.5,5.5,2.3,9.6,8.4,9.5c6-0.1,11.4,0.6,16.3,4.7c5.1,4.3,10.8,8,17.1,12.6c0-5.6,0-10.2,0-14.9c0.1-5.9,2.7-9.2,7.4-9.3
		c4.7-0.1,7.6,3.3,7.6,9.1C263.2,224.7,263.1,229.3,263.1,235.1z M248.1,465c0-6-0.1-10.9,0-15.7c0.1-5.4,3.1-8.5,7.8-8.4
		c4.4,0.1,7.2,3.2,7.2,8.4c0.1,4.9,0,9.8,0,15.7c5.7-4.1,10.7-7.4,15.2-11.2c5.2-4.4,10.8-6.7,17.8-6.2c5.6,0.4,8.6-2.5,9-7.1
		c0.5-5.4-2-8.5-8.1-9.2c-6.2-0.7-9.5-4.2-10.9-10c-0.8-3.1-1.6-6.3-2.5-10c-9.1,6.4-16.8,13.8-28.3,13.7
		c-11.4-0.1-19-7.8-27.8-13.7c-0.7,2.6-1.2,4.3-1.5,6.1c-1.3,8-4.8,13.6-13.9,14.2c-4.2,0.3-6.2,3.6-6.2,7.8c0,5.3,3.1,8.5,9.1,8.1
		c7-0.5,12.6,1.8,17.8,6.2C237.4,457.6,242.4,460.8,248.1,465z M263.1,350.1c6.1-4.5,11.4-8,16.2-11.9c4.8-3.9,9.8-5.8,16-5.4
		c6.3,0.4,9.5-2.4,9.8-7.4c0.3-5.3-2.1-8.1-8.4-9c-5.9-0.8-9.2-4.2-10.6-9.7c-0.8-3.2-1.6-6.4-2.5-10.1c-9,5.9-16.6,13.6-28.1,13.6
		c-11.5,0-19-7.6-28-13.6c-0.6,2.3-1.3,4-1.5,5.8c-1.3,8.2-4.8,13.9-14.2,14.6c-3.7,0.3-5.6,3.2-5.9,7c-0.4,5.5,2.7,9,8.8,8.9
		c6-0.1,11.4,0.6,16.3,4.8c5.1,4.3,10.8,8,17,12.6c0-5.9-0.1-10.6,0-15.4c0.1-5.4,2.9-8.7,7.5-8.7c4.6,0,7.4,3.2,7.5,8.6
		C263.2,339.4,263.1,344.2,263.1,350.1z M227.8,353.1c-1.2,4.8-1.9,8.2-2.8,11.5c-1.5,5.4-4.9,8.5-10.5,9.3
		c-6.3,0.9-8.7,3.5-8.4,8.8c0.3,5,3.4,7.6,9.8,7.3c6-0.3,11,1.5,15.6,5.2c5.1,4.1,10.6,7.8,16.7,12.3c0-5.9-0.1-10.6,0-15.4
		c0.1-5.4,3-8.8,7.4-8.8c4.5-0.1,7.5,3.3,7.6,8.7c0.1,4.9,0,9.8,0,15.6c6-4.4,11.3-7.8,16.1-11.8c5-4.2,10.4-6.1,17-5.7
		c5.6,0.3,8.6-2.4,9-7c0.4-5.4-2.1-8.2-8.1-9.1c-5.8-0.8-9.3-4-10.8-9.6c-0.9-3.3-1.6-6.6-2.8-11.2
		C264.9,372,246.5,372.2,227.8,353.1z M227.7,238.2c-1.2,4.9-1.9,8.3-2.9,11.7c-1.5,5.1-4.8,8.2-10.2,9c-6.6,1-9.1,3.7-8.6,9.2
		c0.4,4.9,3.4,7.3,10.1,7c5.6-0.2,10.4,1.2,14.8,4.8c4.4,3.6,9.1,6.8,13.7,10.1c1,0.7,2.1,1.2,3.5,2c0-5.5-0.1-10.3,0-15.2
		c0.1-5.1,3-8.3,7.3-8.4c4.5-0.1,7.6,3.2,7.7,8.6c0.1,4.9,0,9.8,0,15.7c5.7-4.2,10.7-7.5,15.3-11.3c5.4-4.5,11.2-6.8,18.3-6.3
		c5.4,0.4,8.3-2.7,8.5-7.6c0.2-5-2.3-7.8-7.7-8.5c-6.6-0.9-9.7-3.7-11.3-10.1c-0.8-3.1-1.6-6.2-2.7-10.5
		C264.8,257.1,246.4,257.1,227.7,238.2z"/>
	<path d="M384.1,512c-3.7-2.7-4.7-6.4-4.9-10.8c-2.5-41.2-5.3-82.4-7.6-123.7c-0.2-4.1,0.6-8.9,2.6-12.4
		c10.4-18.2,14.3-37.6,13.9-58.4c-0.5-30.5-0.1-61-0.1-91.4c0-1.7-0.6-3.8,0.2-4.9c1.6-2.4,3.7-5.2,6.2-6.1c3.4-1.3,6.6,0.8,7.8,4.4
		c0.7,2,0.8,4.2,0.8,6.4c0,38.8,0.2,77.6-0.1,116.4c-0.1,10,2,19.1,7.3,27.6c0.8,1.3,1.5,2.6,2.1,4c1.7,4,0.6,7.3-3,9.5
		c-3.6,2.1-7.2,1.4-9.7-2c-2.2-3.1-3.9-6.5-6.1-10.2c-3,7.2-7.4,12.8-6.8,21.3c3,39.7,5.1,79.4,7.7,119.1c0.3,4.7-0.6,8.4-4.3,11.4
		C388.1,512,386.1,512,384.1,512z"/>
	<path d="M335.1,0c4.3,2.1,5.6,5.7,5.4,10.3c-0.5,12.3,0.7,24.3,5.7,35.7c7.8,17.8,20.8,30.2,38.6,37.9
		c13.3,5.7,26.6,11.3,39.9,17.1c30.3,13.3,52.3,35,65.4,65.4c1.1,2.5,1.5,6,0.6,8.5c-1.9,5.1-8.9,5.6-12.3,1.2
		c-1-1.3-1.6-2.9-2.3-4.4c-11.7-26-30.6-44.9-56.6-56.5c-12.9-5.7-25.9-11.2-38.9-16.8c-37.4-15.9-58.1-49.6-55-90.1
		c0.2-2.8,3-5.5,4.6-8.2C331.8,0,333.4,0,335.1,0z"/>
	<path d="M182.1,0c4.1,2.7,4.8,6.5,4.9,11.2c0.7,26.4-7.1,49.5-26,68.4c-2.1,2.1-4.4,4-6.8,5.9c-4.7,3.8-9.4,3.7-12.3,0
		c-2.9-3.7-2-7.8,2.7-11.6c13.9-11.2,22.8-25.5,25.8-43.1c1.2-6.7,1.2-13.6,1.3-20.4c0-4.6,1.1-8.1,5.3-10.3
		C178.8,0,180.4,0,182.1,0z"/>
	<path d="M123.1,512c-4.2-2.2-5.6-5.6-5.2-10.3c0.9-12.1,1.5-24.3,2.3-36.4c0.3-5.4,3.3-8.5,7.9-8.4c4.5,0.1,7.4,3.5,7.1,8.9
		c-0.6,12.6-1.2,25.3-2.4,37.9c-0.3,2.9-3,5.5-4.6,8.2C126.4,512,124.8,512,123.1,512z"/>
	<path d="M258.1,0c4,2.4,5.4,5.8,5.1,10.4c-0.3,5,0,9.9-0.1,14.9c-0.1,4.9-3.2,8-7.7,7.9c-4.2-0.1-7.1-3.1-7.3-7.8
		c-0.1-5.8-0.6-11.7,0.2-17.4c0.4-2.8,3.1-5.3,4.8-8C254.8,0,256.4,0,258.1,0z"/>
	<path d="M120.4,87.4c1.8,1.9,4.6,3.7,5.6,6.3c1.6,3.9-0.3,7.2-4.2,9c-8.2,3.6-16.5,7.2-24.8,10.6c-27.3,11.3-47.9,29.8-60.1,57
		c-13.4,29.9-13.3,59.9-0.5,90.1c1.3,3.1,2.1,6.7,2.1,10.1c0.2,36.2,0.1,72.3,0.1,108.5c0,1.5,0,3-0.2,4.5c-0.7,4.2-3.1,6.7-7.4,6.7
		c-4.3,0-6.8-2.5-7.4-6.6c-0.3-1.8-0.2-3.7-0.2-5.5c0-34.7,0.1-69.3-0.1-104c0-3.5-0.8-7.3-2.1-10.6
		c-25.6-61.2,2.2-132.9,62.4-160.6c10.1-4.7,20.4-8.9,30.7-13.3C115.9,88.8,117.5,88.4,120.4,87.4z"/>
	<path d="M118.3,360.9c-1.7,2.9-3.2,5.8-5,8.6c-2.5,3.9-6.7,5.1-10.3,3.1c-3.6-2-5.3-6.6-2.7-10.3c8.5-12.4,9.1-26.3,9-40.7
		c-0.3-35.5-0.1-71-0.1-106.5c0-2.1,0.1-4.4,0.8-6.4c1.2-3.6,4.4-5.7,7.8-4.5c2.5,0.9,4.6,3.7,6.2,6.1c0.9,1.3,0.3,3.6,0.3,5.4
		c0,32.5,0.1,65,0,97.5c-0.1,16.8,3.3,32.8,11.8,47.4c4.1,7.1,5.3,14.3,4.5,22.5c-1.5,15.9-2.1,31.9-3.2,47.9
		c-0.4,5.9-3.5,9.1-8,8.8c-4.7-0.3-7.4-4.2-7-10.2c1.1-17.3,2.8-34.6,3.1-51.9c0.1-5.7-3.6-11.4-5.5-17
		C119.3,360.7,118.8,360.8,118.3,360.9z"/>
	<path d="M473.6,324.3c0-18.2-0.1-36.3,0.1-54.5c0-2.9,0.5-6.1,1.7-8.7c7.7-17.2,10.8-35.2,9.6-54c-0.1-0.8-0.1-1.7-0.1-2.5
		c0-4.8,2.5-8,6.6-8.5c4.2-0.5,8.1,2.6,8.2,7.5c0.3,8.5,1.1,17.2-0.4,25.4c-2.2,12.4-6.3,24.4-9.4,36.6c-0.6,2.4-1.1,4.9-1.1,7.3
		c-0.1,35.2,0,70.3,0,105.5c0,8.2-2.3,11.7-7.6,11.7c-5.3,0-7.5-3.4-7.5-11.7C473.6,360.3,473.6,342.3,473.6,324.3z"/>
	<path d="M263.1,70.3c0,3.2,0.2,6.3,0,9.5c-0.3,4.2-3.6,7.2-7.5,7.2c-3.9,0-7.3-3-7.4-7.2c-0.2-6.3-0.2-12.6,0-18.9
		c0.2-4.3,3.4-7.1,7.5-7.1c4.1,0,7.1,2.8,7.4,7.1C263.3,64,263.1,67.1,263.1,70.3z"/>
</g>
</svg>
