<?xml version="1.0" encoding="utf-8"?>
<!-- Generator: Adobe Illustrator 25.0.1, SVG Export Plug-In . SVG Version: 6.00 Build 0)  -->
<svg fill="#a27b59" version="1.1" id="Capa_1" xmlns="http://www.w3.org/2000/svg" xmlns:xlink="http://www.w3.org/1999/xlink" x="0px" y="0px"
	 viewBox="0 0 513 513" style="enable-background:new 0 0 513 513;" xml:space="preserve">
<g>
	<path d="M0.5,7.4C3.2,3,7,2.1,12,2.8c39.5,5.7,79.1,11.1,118.7,16.6c36.9,5.1,73.9,10.2,110.8,15.5c11.4,1.6,22.9,2.8,34,5.5
		c42.1,10.3,71.9,47.8,72.1,91.3c0.4,67.8,0.2,135.6,0,203.4c0,5.7,1.5,10,5.5,14.2c14.4,15.2,23.8,33.2,28.3,53.6
		c0.9,4,2.7,6.2,6.6,7.7c21.1,8.2,42.1,16.6,63.1,25.1c5.9,2.4,11.9,3,17.4-0.2c17.7-10.4,38.6-1.6,43.2,21.6
		c0.1,0.4,0.5,0.8,0.8,1.2c0,4,0,8,0,12c-5.1,29.7-47.6,46.7-77.9,37.5c-16.5-5-33.3-9.4-49.7-14.9c-17.2-5.7-34.2-5.6-51.6-1.2
		c-23.2,5.9-46.5,11.8-69.9,16.6c-35.2,7.1-67.4-21-66.2-57c0.5-15.2,6.5-28,17.1-38.8c4.8-4.9,9.8-9.5,14.3-14.7
		c1.8-2.1,3-5.1,3.3-7.8c0.5-4.9,0-10,0.2-15c0.2-5.2,3.1-8.1,7.6-8c4.3,0.1,7,2.9,7.1,7.9c0.2,6.2,0.1,12.3,0,18.5
		c-0.1,5.5-2.5,9.9-6.3,13.7c-5.9,5.9-11.9,11.7-17.5,17.9c-10.7,11.9-13.8,25.7-8.8,40.8c5,15,15.5,24.9,31.2,27.7
		c6.2,1.1,13,0.4,19.2-1c22.9-5.1,45.7-10.7,68.5-16.3c19.3-4.7,38.1-3.6,57,2.5c18,5.8,36.2,11.5,54.7,15.5
		c16.7,3.7,32-1.8,44.9-13c8.7-7.6,10.2-20.1,4-29.5c-3.6-5.4-9.1-7.6-14.7-4.6c-13.4,7.1-26.3,5.8-39.8,0
		c-19.1-8.2-38.5-15.6-57.9-23.2c-7.8-3-12.4-8.2-14.2-16.5c-4.1-19.2-13-35.9-26.7-49.9c-5.5-5.6-7.9-12.1-7.8-19.8
		c0.1-10,0-19.9,0-30.2c-28.7,0-56.9,0-85.8,0c0,3,0,5.9,0,8.9c0,8.2,0.1,16.3,0,24.5c-0.1,5.5-2.9,8.9-7.2,9
		c-4.5,0.1-7.4-3.4-7.6-9.2c0-1.2,0-2.3,0-3.5c0-13.2-0.2-26.3,0.1-39.5c0.2-6.3-1.2-11.7-4.6-17c-3.4-5.3-6.5-10.9-9.5-16.4
		c-7.6-13.7-11.2-28.4-11.3-44c0-5.1,0-10.3,0-16c-4.1,1.7-7.7,3.3-11.4,4.7c-14.7,5.6-29.9,7.9-45.5,7.9c-46,0-92,0-138,0.1
		c-4.6,0-8.5-0.8-11.2-4.8c0-1.7,0-3.3,0-5c2.1-4,5.4-5.3,9.9-5.3c21.3,0.2,42.7,0.1,64,0.1c1.8,0,3.5,0,5.8,0c0-2.6,0-4.6,0-6.5
		c0-35.7,0-71.3,0-107c0-8.1,2-11.3,7.2-11.4c5.4-0.1,7.7,3.4,7.7,11.5c0,35.7,0,71.3,0,107c0,1.9,0,3.9,0,6.1c8.5,0,16.4,0,25,0
		c0-2.2,0-4.2,0-6.1c0-45.5,0-91,0-136.5c0-7.5,0.1-15-0.1-22.5c0-1.4-1.3-3.8-2.3-4c-7.3-1.3-14.7-2.1-22.6-3.2
		c0,7.4,0.1,14.2,0,21c-0.1,6.1-3.1,9.8-7.7,9.6c-4.5-0.2-7.1-3.6-7.1-9.6c0-7.6,0-15.3,0-23c-2.3-0.4-4-0.8-5.9-1
		c-21.6-3-43.2-6.1-64.8-9c-4-0.5-6.9-2-9-5.2C0.5,10.8,0.5,9.1,0.5,7.4z M135.4,35.2c0,56.1,0,111.3,0,166.8c7.1,0,13.9,0,20.8,0
		c0.2-4.6,1.3-8.7,6.4-9.6c5.9-1,8,3.2,9.4,7.8c14.9-2.8,28.3-8.5,40.6-16.8c2.9-2,5.7-4.1,8.7-5.9c3.5-2,6.9-1.3,9.4,1.9
		c2.7,3.4,2.3,6.9-0.7,9.9c-1.8,1.7-4.1,2.8-6,4.5c-1,0.9-2.3,2.2-2.3,3.4c-0.2,5.4-0.1,10.9-0.1,16.6c5.9,0.4,12.6-0.6,13,7.3
		c0.4,8.3-6.7,7.5-13.2,8.5c2.1,7.1,4.2,13.7,6,20.4c1,3.6,3.1,4.7,6.9,4.6c31-0.2,62-0.1,93-0.1c1.7,0,3.5,0,5.1,0
		c0-8.9,0-17,0-25.3c-5.8-0.5-13,0.7-13.4-7.3c-0.4-9.1,7.7-7.5,13.5-8.2c0-16,0-31.4,0-47.4c-7.9,0-15.5,0.1-23.1,0
		c-36.1-0.5-68.1-25.3-76.8-60.3c-2-8-2.5-16.4-2.8-24.7c-0.5-10.9-0.1-21.9-0.1-33.1c-10.1-1.4-19.7-2.7-29.3-4
		c-9.5-1.3-19-2.7-28.9-4.1c0,4,0.1,7.3,0,10.6c-0.1,5.3-3.3,8.7-7.8,8.5c-4.3-0.2-7.1-3.5-7.2-8.6c-0.1-4.1,0-8.2,0-12.6
		C149.3,37.1,142.6,36.2,135.4,35.2z M332.5,135.1c-6.7,0-12.9,0.2-19-0.1c-5.1-0.2-10.4-0.4-15.3-1.7
		c-19.5-5.4-31.6-18.3-36.1-38.1c-1-4.5,1.2-8.2,5.4-9.3c4-1.1,7.7,1.2,9.1,5.7c0.3,1.1,0.6,2.3,0.9,3.4c3.8,12.5,12,21.1,24.7,23.7
		c9.5,1.9,19.4,1.4,29.3,1.9c-2.8-28.2-27.4-57.7-55.1-64c-0.1,1.2-0.2,2.3-0.3,3.4c-0.5,5.1-3.5,8.2-7.7,8.1
		c-4.2-0.2-7-3.4-7.2-8.6c-0.1-2.3,0-4.5,0-6.9c-5.8-0.8-10.9-1.5-16.4-2.3c0,11.7-0.2,23.1,0,34.3c1.1,45,37.3,73.8,87.9,65.8
		C332.5,145.6,332.5,140.7,332.5,135.1z M248.5,292.1c27.3,0,55.7,0,83.9,0c0-7.6,0-14.9,0-22.2c-31.4,0-62.5,0-93.3,0
		C242.2,277.1,245.2,284.2,248.5,292.1z"/>
	<path d="M156.5,122.7c0-1.7-0.1-3.3,0-5c0.4-4.2,2.9-6.6,7.1-7c3.8-0.4,7.4,2.7,7.7,6.9c0.3,3.5,0.3,7,0,10.5
		c-0.3,4.3-3.4,7.3-7.4,7.3c-4.1,0-7.2-3.1-7.5-7.7C156.4,126,156.5,124.3,156.5,122.7C156.5,122.7,156.5,122.7,156.5,122.7z"/>
	<path d="M156.6,163.6c0-1.8-0.2-3.7,0-5.5c0.6-4.1,3.1-6.6,7.3-6.7c4,0,6.8,2.3,7.3,6.2c0.5,3.9,0.5,8,0,11.9
		c-0.5,4.2-3.4,6.6-7.5,6.4c-4.1-0.1-6.7-2.7-7.2-6.9C156.4,167.3,156.5,165.4,156.6,163.6C156.5,163.6,156.6,163.6,156.6,163.6z"/>
	<path d="M171.4,82.3c0,1.7,0.1,3.3,0,5c-0.4,4.3-3.4,7.2-7.4,7.2c-4,0-7.1-2.9-7.4-7.2c-0.2-3.3-0.2-6.6,0-9.9
		c0.2-4.4,3.2-7.3,7.2-7.4c4.2-0.1,7.3,2.9,7.7,7.5C171.6,79,171.4,80.7,171.4,82.3z"/>
	<path d="M256.8,213.9c1.7,0.1,3.3,0.1,5,0.4c3.8,0.6,5.9,3.1,6,6.9c0.1,4-1.8,6.8-5.9,7.5c-2.8,0.5-5.6,0.4-8.5,0.2
		c-4.4-0.3-7.1-2.7-7.3-7.3c-0.1-4.3,2.7-7.1,7.6-7.5c1-0.1,2,0,3,0C256.8,214,256.8,214,256.8,213.9z"/>
	<path d="M293.2,214.1c1.3,0,2.7-0.1,4,0c4.3,0.5,7.4,3.5,7.1,7.4c-0.3,4.2-2.6,6.8-6.8,7.2c-2.5,0.3-5,0.3-7.4,0.1
		c-4.8-0.4-7.6-3.3-7.6-7.5c0-4.2,2.9-7,7.8-7.3C291.2,214,292.2,214,293.2,214.1C293.2,214.1,293.2,214.1,293.2,214.1z"/>
</g>
</svg>
